<svg xmlns="http://www.w3.org/2000/svg" viewBox="0 0 100 100">
  <rect width="100" height="100" rx="20" fill="#030303"/>
  <path d="M50 15C25.1 15 5 35.1 5 60s20.1 45 45 45 45-20.1 45-45S74.9 15 50 15zm0 8c20.4 0 37 16.6 37 37S70.4 97 50 97 13 80.4 13 60s16.6-37 37-37zm0 6c-3.1 0-6.1.5-9 1.4v2.7c2.8-.7 5.8-1.1 9-1.1 16 0 29 13 29 29 0 3.2-.4 6.2-1.1 9h2.7c.9-2.9 1.4-5.9 1.4-9 0-17.7-14.3-32-32-32zm-12.4 4.3c-2.4 1.4-4.6 3.2-6.5 5.3l1.9 1.9c1.7-1.9 3.7-3.5 5.9-4.8l-1.3-2.4zm24.8 0l-1.3 2.4c2.2 1.3 4.2 2.9 5.9 4.8l1.9-1.9c-1.9-2.1-4.1-3.9-6.5-5.3z" fill="#e62429"/>
</svg>
